<?xml version="1.0" encoding="UTF-8" standalone="no"?>
<!-- Created with Inkscape (http://www.inkscape.org/) -->

<svg
   width="135.18028mm"
   height="115.18283mm"
   viewBox="0 0 135.18028 115.18283"
   version="1.1"
   id="svg1"
   xml:space="preserve"
   xmlns="http://www.w3.org/2000/svg"
   xmlns:svg="http://www.w3.org/2000/svg"><defs
     id="defs1" /><g
     id="layer1"
     transform="translate(-37.583451,-63.372624)"><path
       style="fill:#000000"
       d="m 70.222963,178.33313 c -2.040926,-0.39862 -7.168348,-4.13124 -11.835405,-8.61585 -11.236022,-10.7968 -18.197641,-24.54085 -20.318866,-40.11476 -0.914987,-6.71777 -0.506732,-16.35742 0.977968,-23.09161 2.31059,-10.480198 7.418829,-20.910018 14.204507,-29.002258 4.136212,-4.93262 11.33237,-11.25913 15.203175,-13.36589 3.228084,-1.75694 6.735163,-0.32453 7.658584,3.12804 0.247595,0.92573 0.239278,1.4288 -0.04012,2.4267 -0.455391,1.6265 -1.235816,2.52818 -3.546301,4.0973 -2.718612,1.84629 -6.655458,5.21243 -8.886438,7.5982 -8.337084,8.91553 -13.388674,19.334498 -15.242672,31.438188 -0.606927,3.96229 -0.606927,12.1773 0,16.13959 2.48356,16.21374 10.951629,29.82811 24.433921,39.28314 2.570726,1.80283 3.338858,2.98296 3.338858,5.12972 0,1.75821 -0.610733,3.02689 -1.972927,4.0984 -0.557741,0.43872 -2.492716,1.15289 -2.888792,1.06621 -0.07276,-0.0159 -0.561233,-0.11273 -1.085496,-0.21512 z m 67.475117,-0.10858 c -2.76471,-1.00625 -4.15566,-3.49487 -3.42065,-6.12008 0.4554,-1.6265 1.23582,-2.52818 3.54631,-4.0973 2.71861,-1.84629 6.65545,-5.21242 8.88643,-7.5982 8.33709,-8.91553 13.38868,-19.3345 15.24267,-31.43819 0.60693,-3.96229 0.60693,-12.1773 0,-16.13959 -2.48355,-16.213738 -10.95162,-29.828108 -24.43392,-39.283138 -2.57072,-1.80283 -3.33885,-2.98296 -3.33885,-5.12972 0,-1.31289 0.13178,-1.83293 0.66238,-2.61377 1.79517,-2.64183 4.51786,-3.15763 7.48598,-1.4182 3.97325,2.32848 10.82063,8.41172 14.77065,13.12229 6.78568,8.09224 11.89391,18.52206 14.2045,29.002258 1.94688,8.83047 1.94688,19.94969 0,28.78015 -2.31059,10.4802 -7.41882,20.91002 -14.2045,29.00226 -4.09611,4.8848 -11.38152,11.30257 -15.09913,13.30093 -1.58248,0.85065 -3.08971,1.07148 -4.30187,0.6303 z M 82.288667,161.67534 c -3.491247,-1.68198 -8.945231,-6.03926 -12.155513,-9.71126 -15.69411,-17.9513 -15.69411,-44.17488 0,-62.126188 3.158005,-3.6122 8.441186,-7.84766 12.143984,-9.73567 1.364318,-0.69565 1.767927,-0.78376 3.005287,-0.65605 2.768189,0.2857 4.656699,2.35691 4.633219,5.08147 -0.0205,2.38175 -0.69894,3.22509 -4.758319,5.91501 -13.124048,8.69656 -19.171491,24.366798 -15.297406,39.638898 2.336013,9.20883 8.368434,17.12576 17.197126,22.56943 1.931479,1.19093 2.847839,2.66732 2.847839,4.58826 0,2.34706 -1.26842,4.12548 -3.488509,4.89115 -1.40241,0.48366 -2.409749,0.37261 -4.127708,-0.45505 z m 41.616663,0.50371 c -3.64893,-1.09995 -4.70592,-6.19482 -1.79359,-8.64539 0.40793,-0.34325 1.79447,-1.32171 3.08118,-2.17434 13.12405,-8.69656 19.17149,-24.3668 15.2974,-39.6389 -2.33601,-9.20883 -8.36843,-17.125758 -17.19712,-22.569428 -1.93148,-1.19093 -2.84784,-2.66732 -2.84784,-4.58826 0,-2.93076 2.27423,-5.20186 5.2083,-5.20112 2.5604,6.6e-4 10.22581,5.51481 14.56343,10.47628 18.62084,21.298968 14.66924,53.543248 -8.53546,69.647668 -3.91854,2.71953 -5.67345,3.32738 -7.7763,2.69349 z M 94.724084,144.66857 c -3.73651,-1.3527 -9.494339,-6.42263 -11.818065,-10.40613 -2.593108,-4.44529 -3.525343,-7.97857 -3.525343,-13.36145 0,-5.38289 0.932235,-8.91617 3.525343,-13.36146 2.615066,-4.48295 8.952735,-9.782198 12.504665,-10.455808 3.29005,-0.62395 5.869456,1.55226 5.886596,4.966438 0.0113,2.24217 -0.84888,3.47505 -3.540876,5.07529 -5.15981,3.06723 -8.1917,8.16578 -8.1917,13.77554 0,2.55699 0.41151,4.28393 1.6279,6.83161 1.29069,2.70331 3.67713,5.22796 6.5638,6.94392 2.556196,1.51952 3.548696,2.8606 3.568316,4.82157 0.0196,1.96239 -0.71544,3.44776 -2.189346,4.42404 -0.6571,0.43525 -1.39755,0.79135 -1.64546,0.79135 -0.2479,0 -0.79303,0.0546 -1.21141,0.12123 -0.41837,0.0667 -1.11786,-0.008 -1.55442,-0.16614 z m 17.727076,-0.0383 c -2.33935,-0.92437 -3.38589,-2.42678 -3.3982,-4.87844 -0.0113,-2.24217 0.84888,-3.47505 3.54088,-5.07529 5.15981,-3.06722 8.1917,-8.16578 8.1917,-13.77553 0,-2.557 -0.41151,-4.28394 -1.6279,-6.83161 -1.29069,-2.70332 -3.67714,-5.22796 -6.5638,-6.94393 -2.5562,-1.51952 -3.5487,-2.8606 -3.56832,-4.82157 -0.0276,-2.752898 1.59828,-4.751878 4.27095,-5.251188 1.56093,-0.29162 2.45505,-0.0203 5.24011,1.59004 2.885,1.668138 7.21182,5.989688 8.90765,8.896798 2.5931,4.44529 3.52534,7.97857 3.52534,13.36146 0,4.12378 -0.31924,6.00292 -1.59701,9.4005 -2.99381,7.96053 -12.55285,16.05496 -16.9214,14.32876 z M 101.7884,127.76482 c -2.749906,-1.37415 -4.281026,-3.829 -4.281026,-6.86381 0,-3.03481 1.53112,-5.48967 4.281026,-6.86382 5.13008,-2.56353 11.04851,1.12319 11.05705,6.8877 0.008,5.70193 -5.95367,9.39012 -11.05705,6.83993 z"
       id="path1" /></g></svg>
